<svg width="186" height="226" viewBox="0 0 186 226" fill="none" xmlns="http://www.w3.org/2000/svg">
<g clip-path="url(#clip0_13424_77289)">
<path d="M165.446 9.46655C167.126 13.589 171.157 22.2615 173.844 23.9716C177.203 26.1092 165.141 34.3541 164.53 40.4615C163.919 46.5689 162.393 28.7048 153.69 25.9565C152.731 25.6537 152 25.4918 151.472 25.4131C149.917 25.1811 150.128 25.673 151.472 25.4131C153.811 24.961 159.58 22.2342 165.446 9.46655Z" fill="#96A9CE" stroke="#171717" stroke-width="0.305369"/>
<path d="M17.8545 150.242C19.5341 154.364 23.5649 163.037 26.2522 164.747C29.6112 166.885 17.5492 175.13 16.9384 181.237C16.3277 187.344 14.8008 169.48 6.09781 166.732C5.13907 166.429 4.40823 166.267 3.88061 166.188C2.32485 165.957 2.53592 166.448 3.88061 166.188C6.21957 165.736 11.9883 163.01 17.8545 150.242Z" fill="#96A9CE" stroke="#171717" stroke-width="0.305369"/>
<path d="M67.7821 40.6143L52.6663 37.1025C24.4502 56.8905 23.5036 93.5958 26.5573 109.475L35.871 113.139C39.5863 118.331 50.2844 121.568 63.3542 92.9851C76.424 64.4025 71.7519 46.1618 67.7821 40.6143Z" fill="#7FEABD"/>
<path d="M103.51 53.4398L95.7232 65.6546C105.006 98.5123 148.145 113.954 168.554 117.567C170.488 115.939 175.089 111.032 178.02 104.436C181.685 96.1915 188.555 92.2217 151.911 63.2116C122.596 40.0035 107.429 47.027 103.51 53.4398Z" fill="#7FEABD"/>
<path d="M68.3927 162.609C46.5283 188.993 49.3071 204.547 53.4296 209.025C69.6753 233.333 92.466 219.357 101.831 209.331C127.97 186.733 132.368 162.253 131.299 152.837L115.725 138.485C109.058 135.533 90.2571 136.225 68.3927 162.609Z" fill="#7FEABD"/>
<path d="M67.7821 40.6143L52.6663 37.1025C24.4502 56.8905 23.5036 93.5958 26.5573 109.475L35.871 113.139C39.5863 118.331 50.2844 121.568 63.3542 92.9851C76.424 64.4025 71.7519 46.1618 67.7821 40.6143Z" stroke="#171717" stroke-width="0.305369"/>
<path d="M103.51 53.4398L95.7232 65.6546C105.006 98.5123 148.145 113.954 168.554 117.567C170.488 115.939 175.089 111.032 178.02 104.436C181.685 96.1915 188.555 92.2217 151.911 63.2116C122.596 40.0035 107.429 47.027 103.51 53.4398Z" stroke="#171717" stroke-width="0.305369"/>
<path d="M68.3927 162.609C46.5283 188.993 49.3071 204.547 53.4296 209.025C69.6753 233.333 92.466 219.357 101.831 209.331C127.97 186.733 132.368 162.253 131.299 152.837L115.725 138.485C109.058 135.533 90.2571 136.225 68.3927 162.609Z" stroke="#171717" stroke-width="0.305369"/>
<path d="M178.669 82.7798C172.964 75.3427 164.09 67.5273 153.687 60.7709C143.283 54.0161 132.538 49.1001 123.427 46.9006C113.323 44.4736 106.402 45.6362 103.387 50.2581L95.2418 62.799C88.6683 72.9177 105.823 91.8217 125.297 104.468C138.603 113.112 154.137 119.574 164.74 119.574C169.639 119.574 173.508 118.184 175.589 114.982L183.734 102.442C186.748 97.8183 184.993 91.0171 178.669 82.7787V82.7798ZM114.249 50.6811C116.954 50.7351 119.644 51.1009 122.265 51.7721C130.838 53.8334 141.031 58.5236 150.971 64.9763C160.912 71.4289 169.336 78.8356 174.707 85.8306C179.411 91.9587 181.222 97.1467 179.552 99.7122C177.882 102.278 172.427 102.736 164.901 100.927C156.323 98.8661 146.13 94.1759 136.194 87.7232C126.26 81.2705 117.812 73.8656 112.468 66.8689C107.765 60.7408 105.953 55.5528 107.619 52.9873C108.594 51.4604 110.936 50.6811 114.249 50.6811H114.249ZM99.451 65.5281L102.893 60.2285C103.742 62.5236 104.863 64.7073 106.233 66.7349L101.124 74.6045C98.8625 70.6442 98.2168 67.4251 99.4541 65.5277L99.451 65.5281ZM104.127 79.1378L109.372 71.0598C113.509 76.1908 119.093 81.4582 125.604 86.4109L120.199 94.7336C113.269 89.4023 107.801 83.9565 104.13 79.1374L104.127 79.1378ZM124.243 97.7034L129.659 89.366C130.896 90.2567 132.165 91.0901 133.453 91.9267L133.452 91.9283C138.516 95.2301 143.815 98.1566 149.309 100.682L143.938 108.956L143.939 108.957C138.424 106.483 133.113 103.577 128.054 100.269C126.745 99.4224 125.476 98.5667 124.246 97.7031L124.243 97.7034ZM171.4 112.253C169.138 115.736 160.24 115.281 148.653 110.895L153.997 102.669H153.996C157.161 103.932 160.408 104.973 163.717 105.786C166.716 106.553 169.796 106.966 172.89 107.02C173.568 107.02 174.226 106.993 174.837 106.941L171.4 112.253Z" fill="#171717"/>
<path d="M69.7133 83.427C73.0438 73.2114 74.7678 63.1073 74.5626 54.98C74.2731 43.4554 70.3225 39.7718 67.0636 38.7079L54.8044 34.6999C44.6906 31.414 32.5776 50.051 26.3033 69.2669C22.9538 79.4902 21.2439 89.5947 21.4492 97.722C21.7386 109.247 25.6844 112.93 28.9433 113.994L41.2073 118.002V118.004C41.9819 118.258 42.793 118.387 43.6073 118.385C53.1866 118.377 63.924 101.143 69.7133 83.427ZM59.1716 96.0395L51.6994 93.6029C53.9467 89.0208 55.8647 84.281 57.4347 79.4241C57.8084 78.2837 58.1615 77.1354 58.4939 75.9775L66.0072 78.4268C65.6732 79.572 65.3217 80.7203 64.9432 81.8734C63.383 86.7352 61.454 91.4716 59.1716 96.0395ZM69.5476 55.0712V55.103C69.686 60.4869 68.8924 66.8549 67.2892 73.5669L59.7759 71.1176C61.3122 64.7142 62.2125 58.3189 62.2602 52.6985L69.5476 55.0712ZM68.991 49.6206L62.0167 47.3494H62.0183C61.8354 45.5267 61.4744 43.728 60.9352 41.9786L65.5092 43.4705C67.0981 43.9921 68.3228 46.2267 68.9908 49.6287L68.991 49.6206ZM31.0584 70.8311C37.689 50.4797 47.4958 39.3464 52.385 39.3464C52.6745 39.3432 52.9608 39.3861 53.2359 39.4752C57.7464 40.9448 59.7154 56.264 52.6697 77.8751C49.5126 87.5659 45.2325 96.2099 40.6141 102.212C36.7047 107.302 32.8207 109.993 30.4954 109.231C28.1702 108.469 26.6163 104.011 26.4524 97.5983C26.2664 90.0244 27.9016 80.517 31.0584 70.8311ZM42.7708 113.233L38.233 111.75C40.6457 109.897 42.785 107.715 44.5867 105.266C46.3219 102.984 47.898 100.587 49.3073 98.0914L56.7314 100.509C51.2665 109.742 45.7141 114.2 42.7703 113.233L42.7708 113.233Z" fill="#171717"/>
<path d="M129.834 147.893L116.224 136.215C106.952 128.262 85.5584 138.514 67.5196 159.546C59.1521 169.299 52.8236 179.844 49.7064 189.245C46.3617 199.366 47.1235 207.174 51.8535 211.231L65.4632 222.912C67.5881 224.733 70.3618 225.584 73.5588 225.584C84.3579 225.584 100.279 215.787 114.168 199.567C132.241 178.546 139.111 155.842 129.835 147.895L129.834 147.893ZM128.671 162.331L119.391 154.369V154.367C120.044 151.748 120.361 149.054 120.331 146.351L126.565 151.695C128.765 153.566 129.472 157.338 128.68 162.331L128.671 162.331ZM123.772 176.497L114.074 168.179V168.177C115.512 165.413 116.763 162.555 117.82 159.622L127.345 167.794C126.388 170.784 125.198 173.693 123.787 176.497L123.772 176.497ZM116.474 188.583L106.677 180.179C108.493 177.654 110.141 175.134 111.615 172.648L121.373 181.013C119.925 183.475 118.295 186.008 116.474 188.583H116.474ZM54.5001 190.81C57.4075 182.015 63.4067 172.071 71.3431 162.799C85.0244 146.846 99.7009 138.493 108.07 138.493C110.123 138.493 111.798 138.993 112.969 140.012C118.99 145.173 113.819 164.772 96.7807 184.633C88.8269 193.901 79.9076 201.323 71.6594 205.536C64.2003 209.339 58.1788 210.029 55.1377 207.419C52.0951 204.809 51.8598 198.766 54.4872 190.817L54.5001 190.81ZM96.9383 209.474L87.195 201.115C89.4487 199.262 91.6831 197.24 93.8748 195.081L103.672 203.485C101.401 205.697 99.1471 207.697 96.9253 209.482L96.9383 209.474ZM84.776 217.436L75.2905 209.299C78.0165 207.798 80.6409 206.119 83.1474 204.272L92.8382 212.582H92.8366C90.2792 214.405 87.585 216.027 84.776 217.436ZM68.7442 219.119L62.5859 213.819C65.2579 213.438 67.8696 212.708 70.352 211.647L79.575 219.556C74.7607 221.11 70.9261 220.999 68.7486 219.111L68.7442 219.119ZM107.171 199.916L97.3743 191.504C98.4606 190.336 99.5294 189.14 100.581 187.914C101.632 186.688 102.653 185.449 103.644 184.196L113.441 192.607C112.466 193.845 111.45 195.084 110.381 196.326C109.314 197.57 108.25 198.759 107.176 199.908L107.171 199.916Z" fill="#171717"/>
<path d="M147.949 25.7783V25.9167V26.0185L147.976 26.1648V26.1998V26.2014C147.979 26.2125 147.979 26.2236 147.976 26.2332C148.006 26.3604 148.048 26.486 148.097 26.6069L148.119 26.6562C148.164 26.766 148.218 26.8709 148.28 26.9727L148.307 27.0125H148.305C148.371 27.1143 148.444 27.2113 148.525 27.302L148.574 27.356H148.573C148.654 27.4451 148.743 27.5294 148.837 27.6041L148.886 27.6439L148.884 27.6455C148.983 27.7218 149.086 27.7902 149.196 27.8491H149.218C149.323 27.9079 149.432 27.9572 149.544 27.997H149.602C149.692 28.0288 149.785 28.0542 149.878 28.0765C161.257 30.5704 161.39 48.5297 161.39 48.8115V48.9546C161.387 48.988 161.387 49.023 161.39 49.0564C161.39 49.1232 161.39 49.1852 161.422 49.252C161.454 49.3188 161.422 49.2838 161.422 49.3013H161.42C161.57 50.0139 162.02 50.6278 162.654 50.984H162.682L162.837 51.0604L162.899 51.0922L163.028 51.1415L163.13 51.1765L163.237 51.2035L163.37 51.2385H163.469L163.62 51.2608H164.137C164.169 51.2624 164.2 51.2624 164.231 51.2608L164.386 51.2385H164.458L164.627 51.194H164.676L164.859 51.1272C165.528 50.8361 166.037 50.2699 166.252 49.5733C166.278 49.497 166.298 49.419 166.316 49.3411C166.313 49.3236 166.313 49.3061 166.316 49.2886C166.316 49.2266 166.316 49.1598 166.343 49.0978L166.341 49.0962C166.344 49.0628 166.344 49.0278 166.341 48.9944V48.8512C166.341 48.5713 166.475 30.5926 177.853 28.1163C177.947 28.0956 178.039 28.0686 178.129 28.0367H178.187C178.3 27.997 178.408 27.9477 178.513 27.8904H178.535C178.645 27.8316 178.748 27.7616 178.847 27.6852L178.896 27.6455C178.99 27.5691 179.077 27.4849 179.159 27.3958L179.208 27.3417C179.287 27.2511 179.361 27.154 179.426 27.0522L179.453 27.0125C179.513 26.9107 179.567 26.8057 179.612 26.696L179.634 26.6467C179.683 26.5258 179.725 26.4002 179.755 26.2729C179.752 26.2634 179.752 26.2522 179.755 26.2427V26.2077L179.782 26.0614V25.9596V25.8212V25.7051V25.589V25.4506V25.352L179.755 25.201V25.1691V25.0976L179.715 24.964C179.706 24.9242 179.691 24.886 179.675 24.8479L179.636 24.7413H179.634C179.618 24.6968 179.599 24.6538 179.577 24.6125C179.564 24.5823 179.55 24.5536 179.532 24.5282C179.51 24.4836 179.483 24.4391 179.456 24.3946L179.411 24.3182L179.322 24.1974L179.265 24.121L179.176 24.0145L179.096 23.9349L179.012 23.8554L178.91 23.7664H178.909C178.885 23.7441 178.86 23.725 178.832 23.7075C178.793 23.6757 178.751 23.6455 178.708 23.6184L178.642 23.5739C178.592 23.5469 178.548 23.5166 178.498 23.4944L178.427 23.4594L178.281 23.3926L178.201 23.3608L178.055 23.3067L177.956 23.2844L177.862 23.2574C166.484 20.7636 166.351 2.79931 166.351 2.51755V2.37123V2.37282C166.352 2.33942 166.352 2.30761 166.351 2.27421C166.344 2.20741 166.335 2.14061 166.319 2.07381V2.02927C166.138 1.14497 165.495 0.426087 164.636 0.146165H164.614C164.553 0.125489 164.49 0.107994 164.426 0.096862C164.409 0.0952716 164.391 0.0952716 164.374 0.096862C164.32 0.096862 164.262 0.096862 164.208 0.0698242H163.679C163.617 0.0698242 163.558 0.0698242 163.501 0.096862H163.429L163.256 0.141397H163.189L163.028 0.198652L162.961 0.22569L162.823 0.292488L162.739 0.33225L162.535 0.456307L162.459 0.510382L162.343 0.559685L162.298 0.599446L162.165 0.720324L162.142 0.747362C162.093 0.796665 162.048 0.845971 162.004 0.898454C161.856 1.08295 161.732 1.28653 161.64 1.50443C161.613 1.576 161.582 1.65075 161.56 1.7271C161.538 1.80344 161.56 1.7271 161.56 1.75413L161.559 1.75254C161.536 1.82252 161.519 1.8925 161.506 1.96248V2.02451L161.479 2.21218C161.476 2.24399 161.476 2.2774 161.479 2.3092V2.45553C161.479 2.73545 161.346 20.7142 149.968 23.1954L149.839 23.2304H149.799L149.589 23.3019V23.3035C149.295 23.4196 149.026 23.593 148.795 23.8109L148.652 23.9572L148.617 24.0018L148.515 24.1354L148.461 24.2069C148.434 24.2467 148.407 24.2864 148.385 24.3278L148.331 24.4216L148.269 24.5425C148.269 24.5743 148.237 24.6093 148.224 24.6443C148.212 24.6793 148.189 24.7286 148.175 24.7684H148.177C148.162 24.8018 148.151 24.8352 148.142 24.8701L148.102 25.0133V25.0801V25.1119L148.075 25.263V25.3616V25.5V25.6161C148.075 25.6495 147.949 25.7433 147.949 25.7783ZM163.932 15.8746C165.366 19.5756 167.619 23.2352 171.164 25.6716C167.601 28.1035 165.374 31.7599 163.932 35.4687C162.494 31.7629 160.24 28.1081 156.695 25.6716C160.241 23.2366 162.494 19.5752 163.933 15.8746H163.932Z" fill="#96A9CE"/>
<path d="M32.5362 165.954C32.5378 165.908 32.5378 165.862 32.5362 165.816C32.5378 165.782 32.5378 165.747 32.5362 165.714V165.567V165.531C32.5378 165.509 32.5378 165.486 32.5362 165.464C32.5362 165.42 32.5362 165.37 32.5012 165.326L32.4614 165.214H32.4598C32.4471 165.176 32.4328 165.14 32.4153 165.103C32.401 165.062 32.3835 165.022 32.3628 164.984C32.3485 164.949 32.3326 164.917 32.3135 164.885L32.2467 164.764C32.2292 164.736 32.2101 164.707 32.1879 164.68C32.1656 164.64 32.1386 164.6 32.1084 164.564L32.0416 164.48C32.0416 164.448 31.9875 164.418 31.962 164.386L31.8777 164.297L31.8014 164.22L31.6853 164.127L31.6233 164.072L31.4181 163.995L31.364 163.96L31.2082 163.87L31.1541 163.839L30.9887 163.767L30.9219 163.74H30.9235C30.8726 163.721 30.8201 163.702 30.7676 163.688H30.6833L30.5767 163.656C19.2032 161.162 19.0696 143.203 19.0651 142.921V142.898V142.755V142.654C19.0651 142.619 19.0651 142.53 19.0381 142.463C19.0111 142.396 19.0381 142.428 19.0381 142.409C19.0142 142.329 18.984 142.25 18.949 142.173C18.8075 141.71 18.5339 141.299 18.1602 140.988C18.1061 140.944 18.0488 140.904 17.9916 140.864L17.9645 140.842L17.8182 140.753L17.761 140.718L17.613 140.615L17.5192 140.57L17.4174 140.53L17.2886 140.486H17.1995C17.1502 140.486 17.1009 140.454 17.0532 140.446H16.9641L16.8035 140.419H16.2993L16.126 140.446H16.0496L15.8762 140.491H15.8142L15.6536 140.548L15.582 140.575L15.4484 140.637L15.3641 140.677L15.2623 140.739L15.1558 140.805L15.0842 140.859C15.0444 140.891 14.9999 140.917 14.9633 140.949L14.914 140.993C14.8695 141.031 14.8266 141.071 14.7852 141.114L14.7582 141.141C14.7136 141.19 14.6643 141.24 14.6198 141.292C14.4719 141.477 14.3494 141.68 14.2556 141.896C14.2238 141.97 14.1967 142.044 14.1745 142.119V142.146C14.1522 142.215 14.1347 142.285 14.122 142.356V142.418C14.122 142.44 14.122 142.539 14.0902 142.601C14.0934 142.634 14.0934 142.669 14.0902 142.703V142.846V142.868C14.0902 143.148 13.9566 161.127 2.58304 163.603L2.45421 163.638H2.40968C2.33811 163.638 2.27131 163.683 2.20451 163.705C2.13294 163.732 2.06137 163.767 1.99457 163.799C1.923 163.834 1.8562 163.875 1.7894 163.915H1.79099C1.72419 163.955 1.66057 163.999 1.59854 164.049L1.43313 164.187L1.40609 164.214C1.36156 164.258 1.31703 164.303 1.27727 164.352L1.23273 164.402C1.19774 164.446 1.16116 164.486 1.13094 164.53L1.07686 164.607L1.00052 164.728L0.946449 164.817L0.884421 164.938C0.884421 164.973 0.852613 165.004 0.839891 165.039C0.827167 165.074 0.804899 165.124 0.790586 165.168L0.69039 165.33L0.650629 165.474C0.652219 165.494 0.652219 165.515 0.650629 165.536C0.652219 165.547 0.652219 165.559 0.650629 165.571C0.650629 165.62 0.650629 165.669 0.628362 165.717V165.719C0.625181 165.752 0.625181 165.787 0.628362 165.82C0.625181 165.866 0.625181 165.913 0.628362 165.959C0.625181 165.997 0.625181 166.035 0.628362 166.075C0.625181 166.113 0.625181 166.151 0.628362 166.189V166.328C0.625181 166.361 0.625181 166.393 0.628362 166.426C0.628362 166.476 0.628362 166.528 0.650629 166.577C0.652219 166.587 0.652219 166.598 0.650629 166.609V166.641V166.639C0.677666 166.768 0.715838 166.892 0.766732 167.013C0.771504 167.031 0.777866 167.048 0.788999 167.062C0.835122 167.172 0.889198 167.279 0.952817 167.379C0.951226 167.392 0.951226 167.406 0.952817 167.419C1.01962 167.522 1.09278 167.619 1.17071 167.713L1.22001 167.767C1.30272 167.855 1.3902 167.939 1.48244 168.015L1.53174 168.05V168.052C1.63035 168.128 1.73532 168.198 1.84347 168.26H1.86574C1.96753 168.314 2.07886 168.362 2.19019 168.406L2.24745 168.429L2.24904 168.43C2.34129 168.461 2.43512 168.486 2.52896 168.505C13.9168 171.008 14.0503 188.968 14.0503 189.249V189.272V189.415V189.413C14.0519 189.448 14.0519 189.482 14.0503 189.517C14.0503 189.579 14.0503 189.645 14.0821 189.707C14.114 189.769 14.0821 189.742 14.0821 189.762C14.0965 189.838 14.1155 189.914 14.1394 189.989C14.2825 190.457 14.5625 190.872 14.941 191.182L15.1064 191.306H15.1382L15.2846 191.4L15.3418 191.435L15.4659 191.492L15.5645 191.536V191.538C15.5979 191.554 15.6313 191.568 15.6663 191.578L15.7903 191.622L15.8794 191.649L16.0305 191.684H16.1148L16.2802 191.711H16.7828L16.9561 191.684H17.0293C17.0897 191.675 17.1502 191.661 17.2074 191.64H17.2695C17.3251 191.626 17.3792 191.606 17.4301 191.583L17.5017 191.56L17.6353 191.494L17.7196 191.454L17.8214 191.392L17.9279 191.33L17.9995 191.272L18.1204 191.183L18.1697 191.139V191.137C18.2158 191.101 18.2587 191.061 18.2985 191.016C18.3001 191.01 18.3001 191.002 18.2985 190.994C18.3478 190.945 18.3971 190.892 18.4416 190.838C18.5911 190.654 18.7136 190.449 18.8059 190.229C18.8377 190.158 18.8647 190.084 18.887 190.011V189.984C18.9092 189.914 18.9267 189.843 18.9395 189.769V189.712C18.9538 189.65 18.9617 189.588 18.9665 189.525V189.423V189.28V189.257C18.9665 188.977 19.1049 170.999 30.4781 168.522V168.524C30.5735 168.503 30.6674 168.478 30.7596 168.448L30.8137 168.425C30.9298 168.381 31.0364 168.332 31.1429 168.279H31.1413C31.2495 168.215 31.3544 168.145 31.453 168.069L31.5024 168.034C31.5962 167.956 31.6837 167.873 31.7648 167.784L31.8141 167.73C31.892 167.636 31.9652 167.538 32.032 167.436V167.396C32.094 167.295 32.1497 167.19 32.1974 167.08V167.032C32.2451 166.91 32.2833 166.786 32.3135 166.657C32.3151 166.647 32.3151 166.636 32.3135 166.627V166.595V166.444C32.3151 166.41 32.3151 166.378 32.3135 166.345V166.207V166.208C32.3151 166.168 32.3151 166.13 32.3135 166.092C32.393 166.056 32.4678 166.01 32.5362 165.954ZM16.5568 175.858C15.1222 172.157 12.8654 168.497 9.3204 166.061C12.883 163.629 15.1098 159.969 16.5568 156.264C17.9914 159.965 20.2435 163.624 23.7933 166.061C20.245 168.497 17.9913 172.157 16.5568 175.858Z" fill="#96A9CE"/>
</g>
<defs>
<clipPath id="clip0_13424_77289">
<rect width="184.748" height="225.668" fill="white" transform="translate(0.448242)"/>
</clipPath>
</defs>
</svg>
